# xmcd
#
# Track frame offsets: 
#        200
#        12287
#        28900
#        42645
#        56735
#        73850
#        86310
#        100370
#        115610
#        130052
#        144652
#        160240
#
# Disc length: 2316 seconds
#
# Revision: 5
# Processed by: cddbd v1.4PL0 Copyright (c) Steve Scherf et al.
# Submitted via: ExactAudioCopy v0.90b3
#
DISCID=a6090a0c
DTITLE=Don Walser - Rolling Stone From Texas
DYEAR=1994
DGENRE=Country
TTITLE0=Rolling Stone From Texas
TTITLE1=Don't Worry (About Me)
TTITLE2=Cowpoke
TTITLE3=Shotgun Boogie
TTITLE4=That's Why I'm Walking (Angel On My Mind)
TTITLE5=California Blues (Blue Yodel #4)
TTITLE6=The John Deere Tractor Song
TTITLE7=I'll Hold You In My Heart (Til' I Can Hold You In My Arms)
TTITLE8=Cowboy Ramsey
TTITLE9=(The Party Don't Start) 'Til The Playboys Get Here
TTITLE10=Three Days
TTITLE11=Down At The Cantina
EXTD=YEAR: 1994 ID3G:   2
EXTT0=
EXTT1=
EXTT2=
EXTT3=
EXTT4=
EXTT5=
EXTT6=
EXTT7=
EXTT8=
EXTT9=
EXTT10=
EXTT11=
PLAYORDER=
